<?xml version="1.0" encoding="UTF-8"?>
<svg width="512" height="512" viewBox="0 0 512 512" fill="none" xmlns="http://www.w3.org/2000/svg">
  <!-- Background Circle -->
  <circle cx="256" cy="256" r="248" fill="#F97316" />
  
  <!-- Poodle Head -->
  <circle cx="256" cy="240" r="140" fill="#FFFFFF" stroke="#333333" stroke-width="12"/>
  
  <!-- Poodle Ears -->
  <ellipse cx="150" cy="170" rx="45" ry="60" fill="#FFFFFF" stroke="#333333" stroke-width="8" transform="rotate(-20 150 170)"/>
  <ellipse cx="362" cy="170" rx="45" ry="60" fill="#FFFFFF" stroke="#333333" stroke-width="8" transform="rotate(20 362 170)"/>
  
  <!-- Poodle Topknot -->
  <ellipse cx="256" cy="130" rx="50" ry="35" fill="#FFFFFF" stroke="#333333" stroke-width="8"/>
  <circle cx="256" cy="105" r="22" fill="#FFFFFF" stroke="#333333" stroke-width="6"/>
  <circle cx="236" cy="120" r="15" fill="#FFFFFF" stroke="#333333" stroke-width="6"/>
  <circle cx="276" cy="120" r="15" fill="#FFFFFF" stroke="#333333" stroke-width="6"/>
  
  <!-- Poodle Facial Features -->
  <circle cx="215" cy="220" r="12" fill="#333333"/>
  <circle cx="297" cy="220" r="12" fill="#333333"/>
  
  <!-- Poodle Nose -->
  <circle cx="256" cy="255" r="20" fill="#333333"/>
  
  <!-- Poodle Mouth -->
  <path d="M230 280C230 280 225 300 256 300C287 300 282 280 282 280" stroke="#333333" stroke-width="8" stroke-linecap="round" stroke-linejoin="round"/>
  
  <!-- Poodle Decorative Curls -->
  <circle cx="185" cy="300" r="18" fill="#FFFFFF" stroke="#333333" stroke-width="6"/>
  <circle cx="327" cy="300" r="18" fill="#FFFFFF" stroke="#333333" stroke-width="6"/>
  <circle cx="256" cy="330" r="18" fill="#FFFFFF" stroke="#333333" stroke-width="6"/>
  
  <!-- Poodle Collar -->
  <path d="M180 340C180 340 220 380 330 340" stroke="#F87171" stroke-width="12" stroke-linecap="round"/>
</svg>