<?xml version="1.0" encoding="UTF-8"?>
<svg width="512" height="512" viewBox="0 0 512 512" fill="none" xmlns="http://www.w3.org/2000/svg">
  <!-- Background Circle -->
  <circle cx="256" cy="256" r="248" fill="#F97316" />
  
  <!-- Dog Outline -->
  <path d="M367.8 144.2C358.5 134.9 346.1 130 333.5 130H178.5C165.9 130 153.5 134.9 144.2 144.2C134.9 153.5 130 165.9 130 178.5V267C130 313.4 157.9 354.8 198.9 372.4L247.8 392.8C251.8 394.3 256.2 394.3 260.2 392.8L309.1 372.4C350.1 354.8 378 313.4 378 267V178.5C378 165.9 373.1 153.5 363.8 144.2H367.8Z" fill="#FFFFFF" stroke="#333333" stroke-width="12" stroke-linecap="round" stroke-linejoin="round"/>
  
  <!-- Dog Ears -->
  <path d="M158 180C138 160 118 180 118 200V230C118 240 128 250 138 250C148 250 158 240 158 230V180Z" fill="#FFFFFF" stroke="#333333" stroke-width="8" stroke-linecap="round" stroke-linejoin="round"/>
  <path d="M354 180C374 160 394 180 394 200V230C394 240 384 250 374 250C364 250 354 240 354 230V180Z" fill="#FFFFFF" stroke="#333333" stroke-width="8" stroke-linecap="round" stroke-linejoin="round"/>
  
  <!-- Dog Eyes -->
  <circle cx="200" cy="225" r="15" fill="#333333"/>
  <circle cx="312" cy="225" r="15" fill="#333333"/>
  
  <!-- Dog Nose -->
  <path d="M256 280C242 280 230 268 230 255V245C230 231 242 220 256 220C270 220 282 231 282 245V255C282 268 270 280 256 280Z" fill="#333333"/>
  
  <!-- Dog Mouth -->
  <path d="M230 280C230 280 210 300 210 310C210 320 234 330 256 330C278 330 302 320 302 310C302 300 282 280 282 280" stroke="#333333" stroke-width="8" stroke-linecap="round" stroke-linejoin="round"/>
  
  <!-- Dog Tongue -->
  <path d="M246 330V350C246 355 251 360 256 360C261 360 266 355 266 350V330" fill="#F87171" stroke="#333333" stroke-width="4"/>
</svg>