<?xml version="1.0" encoding="UTF-8"?>
<svg width="32px" height="40px" viewBox="0 0 32 40" xmlns="http://www.w3.org/2000/svg">
  <g transform="translate(0,0)" fill="none" fill-rule="evenodd">
    <path d="M16,0 C7.16344597,0 0,7.16344597 0,16 C0,24.8365401 16,40 16,40 C16,40 32,24.8365401 32,16 C32,7.16344597 24.8365401,0 16,0 Z" fill="#4caf50" />
    <circle cx="16" cy="16" r="8" fill="white" />
    <!-- Tree icon -->
    <g transform="translate(11,9)" fill="#4caf50">
      <path d="M5,16 L5,10 L3,10 L5,5 L3,5 L5,0 L7,0 L9,5 L7,5 L9,10 L7,10 L7,16 L5,16 Z" />
      <path d="M13,10 Q13,5 10,3 T7,0 T4,3 T1,10 L13,10 Z" />
    </g>
  </g>
</svg>