<?xml version="1.0" encoding="UTF-8"?>
<svg width="32px" height="40px" viewBox="0 0 32 40" xmlns="http://www.w3.org/2000/svg">
  <g transform="translate(0,0)" fill="none" fill-rule="evenodd">
    <path d="M16,0 C7.16344597,0 0,7.16344597 0,16 C0,24.8365401 16,40 16,40 C16,40 32,24.8365401 32,16 C32,7.16344597 24.8365401,0 16,0 Z" fill="#ff9800" />
    <circle cx="16" cy="16" r="8" fill="white" />
    <!-- Restaurant icon -->
    <g transform="translate(11,10)" fill="#ff9800">
      <path d="M3,0 L3,14 L1,14 L1,0 L3,0 Z M8,8 L8,14 L6,14 L6,8 C6,7 5,6 4,5.5 L4,0 C6.5,0 8,2.5 8,5 L8,6 C8,7 8,8 9,8 L9,14 L8,14 L8,8 Z"/>
    </g>
  </g>
</svg>