<?xml version="1.0" encoding="UTF-8"?>
<svg width="32px" height="40px" viewBox="0 0 32 40" xmlns="http://www.w3.org/2000/svg">
  <g transform="translate(0,0)" fill="none" fill-rule="evenodd">
    <path d="M16,0 C7.16344597,0 0,7.16344597 0,16 C0,24.8365401 16,40 16,40 C16,40 32,24.8365401 32,16 C32,7.16344597 24.8365401,0 16,0 Z" fill="#9c27b0" />
    <circle cx="16" cy="16" r="8" fill="white" />
    <!-- Coffee cup icon -->
    <g transform="translate(11,10)" fill="#9c27b0">
      <path d="M10,2 L0,2 L0,10 C0,12.2 1.8,14 4,14 L6,14 C8.2,14 10,12.2 10,10 L10,2 Z M10,4 L12,4 C13.1,4 14,4.9 14,6 C14,7.1 13.1,8 12,8 L10,8 L10,4 Z" />
    </g>
  </g>
</svg>